<svg xmlns="http://www.w3.org/2000/svg" viewBox="0 0 48 48">
  <path fill="#EA4335" d="M45 16.75V37c0 2.2-1.8 4-4 4H7c-2.2 0-4-1.8-4-4V16.75"/>
  <path fill="#FBBC04" d="M40 42H8c-2.2 0-4-1.8-4-4v-6h40v6c0 2.2-1.8 4-4 4z"/>
  <path fill="#34A853" d="M40 42H8c-2.2 0-4-1.8-4-4V7c0-2.2 1.8-4 4-4h32c2.2 0 4 1.8 4 4v31c0 2.2-1.8 4-4 4z"/>
  <path fill="#4285F4" d="M7 7h34c2.2 0 4 1.8 4 4v5.75L24 24 4 16.75V11c0-2.2 1.8-4 4-4z"/>
  <path fill="#EA4335" d="M4 16.75l20 8.25 20-8.25M4 16.75V37c0 2.2 1.8 4 4 4h6v-6L4 32v-15.25z"/>
  <path fill="#FBBC04" d="M40 32v6h6c2.2 0 4-1.8 4-4v-2h-10z"/>
</svg>